<?xml version="1.0" encoding="UTF-8" standalone="no"?>
<!--
  - The Imagick Layout Engine
  - Copyright (C) 2025
  -
  - This program is free software: you can redistribute it and/or modify
  - it under the terms of the GNU General Public License as published by
  - the Free Software Foundation, either version 3 of the License, or
  - (at your option) any later version.
  -
  - This program is distributed in the hope that it will be useful,
  - but WITHOUT ANY WARRANTY; without even the implied warranty of
  - MERCHANTABILITY or FITNESS FOR A PARTICULAR PURPOSE.  See the
  - GNU General Public License for more details.
  -
  - You should have received a copy of the GNU General Public License
  - along with this program.  If not, see <https://www.gnu.org/licenses/>.
  -->

<svg
    width="970.8056"
    height="142.84439"
    viewBox="0 0 970.80563 142.84439"
    fill="none"
    version="1.1"
    id="svg3"
    xmlns="http://www.w3.org/2000/svg"
>
    <style>
        .text { fill: #282828 }
        @media (prefers-color-scheme:dark) { .text { fill: #fff } }
    </style>
    <defs
        id="defs3"/>
    <rect
        x="0"
        y="0"
        width="142.84439"
        height="142.84439"
        rx="5.951849"
        ry="5.951849"
        fill="#282828"
        id="rect1"/>
    <path
        d="M 11.903725,11.903691 H 130.94071 V 47.61479 H 53.56667 11.903725 V 29.759238 Z"
        fill="#98971a"
        id="path1"/>
    <path
        d="M 11.903725,59.518492 V 130.94068 H 47.614822 V 59.518492 Z"
        fill="#98971a"
        id="path2"/>
    <path
        d="M 59.518521,130.94068 H 130.94071 V 59.518492 H 59.518521 Z"
        fill="#ebdbb2"
        id="path3"/>
    <g
        id="text3"
        transform="matrix(0.28568878,0,0,0.28568878,-12.341695,0.03881126)"
        aria-label="Imagick Layout Engine">
        <path
            class="text"
            d="m 770.49699,319.19757 h -86.66677 v -22.93336 l 23.20003,-10.66668 V 162.39738 L 683.83022,151.7307 v -22.93336 h 86.66677 v 22.93336 l -23.20003,10.66668 v 123.20015 l 23.20003,10.66668 z m 200.2669,-148.26685 q 24.80003,0 37.33341,12.80002 12.8,12.53334 12.8,40.53338 v 94.93345 H 981.1639 V 234.1308 q 0,-31.46671 -21.86669,-31.46671 -15.73336,0 -22.40003,11.20002 -6.66668,11.20001 -6.66668,32.2667 v 73.06676 H 890.49712 V 234.1308 q 0,-31.46671 -21.86669,-31.46671 -16.53335,0 -22.93336,12.53335 -6.13334,12.26668 -6.13334,35.46671 v 68.53342 H 799.83034 V 173.59739 h 30.40004 l 5.33334,18.66669 h 2.13334 q 6.66667,-11.20001 18.13335,-16.26669 11.73335,-5.06667 24.2667,-5.06667 16.00002,0 26.93337,5.33334 11.20001,5.06667 17.33335,16.00002 h 3.46667 q 6.66668,-11.20001 18.40002,-16.26669 12.00002,-5.06667 24.53337,-5.06667 z m 150.66691,-0.26667 q 29.3334,0 44.8001,12.80002 15.7333,12.53335 15.7333,38.66671 v 97.06679 h -27.7333 l -7.7334,-19.73336 h -1.0666 q -9.3334,11.73335 -19.7334,17.06669 -10.4,5.33334 -28.5334,5.33334 -19.4667,0 -32.2667,-11.20002 -12.8,-11.20001 -12.8,-34.93337 0,-23.20003 16.2667,-34.13338 16.2667,-10.93334 48.8001,-12.26668 l 25.3333,-0.8 v -6.40001 q 0,-11.46668 -6.1333,-16.80002 -5.8667,-5.33334 -16.5334,-5.33334 -10.6667,0 -20.8,3.20001 -10.1333,2.93333 -20.2667,7.46667 l -13.0667,-26.93336 q 11.4667,-5.86668 25.8667,-9.33335 14.4,-3.73334 29.8667,-3.73334 z m 21.0667,81.06677 -15.4667,0.53333 q -19.2,0.53334 -26.6667,6.93335 -7.4666,6.4 -7.4666,16.80002 0,9.06667 5.3333,13.06668 5.3333,3.73334 13.8667,3.73334 12.8,0 21.6,-7.46668 8.8,-7.73334 8.8,-21.60003 z m 127.4669,-80.8001 q 26.9333,0 42.1334,21.33336 h 1.0666 l 3.2,-18.66669 h 33.6001 v 145.86685 q 0,31.20003 -18.4,47.46672 -18.4001,16.26669 -54.4001,16.26669 -15.4667,0 -28.8,-1.86667 -13.0667,-1.86667 -25.6001,-6.66668 v -31.73337 q 26.6667,11.20001 56.8001,11.20001 30.6667,0 30.6667,-33.0667 v -2.93334 q 0,-4.26667 0.2667,-9.06668 0.2666,-5.06667 0.8,-8.80001 h -1.0667 q -7.4667,11.46668 -17.8667,16.53336 -10.4,5.06667 -23.4667,5.06667 -25.8667,0 -40.5334,-19.73336 -14.4,-20.00002 -14.4,-55.46673 0,-35.73338 14.9334,-55.7334 14.9333,-20.00003 41.0667,-20.00003 z m 12.5333,32.26671 q -28,0 -28,44.00005 0,43.46672 28.5334,43.46672 15.2,0 22.4,-8.53334 7.4667,-8.80001 7.4667,-30.40004 v -4.80001 q 0,-23.46669 -7.2,-33.60004 -7.2001,-10.13334 -23.2001,-10.13334 z m 129.0667,-86.66678 q 8.8,0 15.2,4.26668 6.4,4 6.4,15.20001 0,10.93335 -6.4,15.20002 -6.4,4.26668 -15.2,4.26668 -9.0667,0 -15.4667,-4.26668 -6.1333,-4.26667 -6.1333,-15.20002 0,-11.20001 6.1333,-15.20001 6.4,-4.26668 15.4667,-4.26668 z m 19.7334,57.06674 v 145.60018 h -39.7334 V 173.59739 Z m 100.8001,148.26685 q -32.5333,0 -50.4,-17.86669 -17.6,-17.86669 -17.6,-56.80007 0,-26.6667 9.0666,-43.46672 9.0667,-16.80002 25.0667,-24.80003 16.2667,-8.00001 37.3334,-8.00001 14.9334,0 25.8667,2.93334 11.2,2.93333 19.4667,6.93334 l -11.7334,30.6667 q -9.3333,-3.73333 -17.6,-6.13334 -8,-2.4 -16,-2.4 -30.9334,0 -30.9334,44.00005 0,21.8667 8,32.26671 8.2667,10.40001 22.9334,10.40001 12.5334,0 22.1334,-3.2 9.6,-3.46667 18.6667,-9.33335 v 33.86671 q -9.0667,5.86668 -19.2001,8.26668 -9.8666,2.66667 -25.0667,2.66667 z m 117.6002,-205.33359 v 90.66678 q 0,8.26668 -0.8,16.53336 -0.5334,8 -1.3334,16.26668 h 0.5334 q 4,-5.60001 8.2667,-11.20001 4.2666,-5.60001 9.0666,-10.93335 l 40.8001,-44.26672 h 44.8 l -57.8667,63.20008 61.3334,82.4001 h -45.8667 l -41.8667,-58.93341 -17.0667,13.60002 v 45.33339 h -39.7334 V 116.53065 Z"
            id="path4"/>
        <path
            class="text"
            d="m 1855.0321,297.46421 h 82.6667 v 21.73336 h -108.5334 v -191.0669 h 25.8667 z m 206.6669,21.73336 h -10.5333 q -3.4667,0 -5.6,-1.06667 -2.1334,-1.06667 -2.8,-4.53334 l -2.6667,-12.53335 q -5.3333,4.80001 -10.4,8.66668 -5.0667,3.73334 -10.6667,6.40001 -5.6,2.53333 -12,3.86667 -6.2667,1.33333 -14,1.33333 -7.8667,0 -14.8,-2.13333 -6.8,-2.26667 -11.8667,-6.66668 -5.0667,-4.4 -8.1334,-11.06668 -2.9333,-6.8 -2.9333,-16.00002 0,-8.00001 4.4,-15.33335 4.4,-7.46667 14.1334,-13.20001 9.8666,-5.73334 25.7333,-9.33335 15.8667,-3.73334 38.8001,-4.26667 v -10.53335 q 0,-15.73335 -6.8,-23.73336 -6.6667,-8.13334 -19.8667,-8.13334 -8.6667,0 -14.6667,2.26667 -5.8667,2.13333 -10.2667,4.93334 -4.2667,2.66667 -7.4667,4.93334 -3.0666,2.13333 -6.1333,2.13333 -2.4,0 -4.2667,-1.2 -1.7333,-1.33334 -2.8,-3.2 l -4.2667,-7.60001 q 11.2001,-10.80002 24.1334,-16.13336 12.9334,-5.33334 28.6667,-5.33334 11.3334,0 20.1334,3.73334 8.8,3.73334 14.8,10.40001 6,6.66668 9.0667,16.13336 3.0666,9.46668 3.0666,20.80002 z m -61.6,-14.53335 q 6.2666,0 11.4666,-1.2 5.2,-1.33334 9.7334,-3.60001 4.6667,-2.4 8.8,-5.73334 4.2667,-3.33334 8.2667,-7.60001 v -28.13337 q -16.4,0.53334 -27.8667,2.66667 -11.4667,2.00001 -18.6667,5.33334 -7.2,3.33334 -10.5334,7.86668 -3.2,4.53334 -3.2,10.13335 0,5.33334 1.7334,9.20001 1.7333,3.86667 4.6666,6.4 2.9334,2.40001 6.9334,3.60001 4,1.06667 8.6667,1.06667 z m 132.9332,54.40006 q -1.2,2.66667 -3.0667,4.26668 -1.7333,1.6 -5.4667,1.6 h -17.6 l 24.6667,-53.60007 -55.7334,-127.20015 h 20.5334 q 3.0667,0 4.8,1.6 1.7333,1.46667 2.5333,3.33334 l 36.1334,85.06677 q 1.2,2.93333 2,5.86667 0.9333,2.93334 1.6,6.00001 0.9333,-3.06667 1.8667,-6.00001 0.9333,-2.93334 2.1333,-6.00001 l 35.0667,-84.93343 q 0.8,-2.13334 2.6667,-3.46667 2,-1.46667 4.2667,-1.46667 h 18.9333 z M 2281.1654,181.9974 q 14.8,0 26.6667,4.93334 12,4.93334 20.2667,14.00002 8.4,9.06668 12.8,22.00002 4.5334,12.80002 4.5334,28.66671 0,16.00002 -4.5334,28.80003 -4.4,12.80002 -12.8,21.86669 -8.2667,9.06668 -20.2667,14.00002 -11.8667,4.80001 -26.6667,4.80001 -14.8,0 -26.8,-4.80001 -11.8667,-4.93334 -20.2667,-14.00002 -8.4,-9.06667 -12.9334,-21.86669 -4.5333,-12.80001 -4.5333,-28.80003 0,-15.86669 4.5333,-28.66671 4.5334,-12.93334 12.9334,-22.00002 8.4,-9.06668 20.2667,-14.00002 12,-4.93334 26.8,-4.93334 z m 0,120.53348 q 20,0 29.8667,-13.33335 9.8667,-13.46668 9.8667,-37.46671 0,-24.13336 -9.8667,-37.60005 -9.8667,-13.46668 -29.8667,-13.46668 -10.1333,0 -17.6,3.46667 -7.4667,3.46667 -12.5334,10.00001 -4.9333,6.53334 -7.4666,16.13336 -2.4,9.46667 -2.4,21.46669 0,12.00001 2.4,21.46669 2.5333,9.46668 7.4666,16.00002 5.0667,6.40001 12.5334,9.86668 7.4667,3.46667 17.6,3.46667 z m 114.1334,-118.40014 v 86.13344 q 0,15.33335 7.0666,23.73336 7.0667,8.40001 21.3334,8.40001 10.4,0 19.6,-4.93334 9.2,-4.93334 16.9334,-13.73335 v -99.60012 h 23.7333 v 135.06683 h -14.1333 q -5.0667,0 -6.4,-4.93334 l -1.8667,-14.53335 q -8.8,9.73334 -19.7334,15.73335 -10.9333,5.86667 -25.0667,5.86667 -11.0666,0 -19.6,-3.6 -8.4,-3.73334 -14.1333,-10.40001 -5.7334,-6.66668 -8.6667,-16.13336 -2.8,-9.46667 -2.8,-20.93335 v -86.13344 z m 168.6668,137.20016 q -16,0 -24.6667,-8.93334 -8.5333,-8.93334 -8.5333,-25.73336 v -82.66677 h -16.2667 q -2.1333,0 -3.6,-1.2 -1.4667,-1.33334 -1.4667,-4.00001 v -9.46668 l 22.1334,-2.8 5.4667,-41.73338 q 0.2666,-2.00001 1.7333,-3.20001 1.4667,-1.33333 3.7333,-1.33333 h 12 v 46.53339 h 38.6668 v 17.20002 h -38.6668 v 81.06676 q 0,8.53335 4.1334,12.66669 4.1333,4.13333 10.6667,4.13333 3.7333,0 6.4,-0.93333 2.8,-1.06667 4.8,-2.26667 2,-1.2 3.3333,-2.13334 1.4667,-1.06666 2.5334,-1.06666 1.8666,0 3.3333,2.26667 l 6.9333,11.33334 q -6.1333,5.73334 -14.8,9.06668 -8.6667,3.2 -17.8667,3.2 z m 231.4669,-193.20023 v 21.06669 h -91.7334 v 63.46674 h 74.2667 v 20.2667 h -74.2667 v 65.20008 h 91.7334 v 21.06669 h -117.7334 v -191.0669 z m 33.4666,191.0669 V 184.13074 h 14.1333 q 5.0667,0 6.4,4.93334 l 1.8667,14.66668 q 8.8,-9.73334 19.6,-15.73335 10.9334,-6.00001 25.2,-6.00001 11.0667,0 19.4667,3.73334 8.5334,3.6 14.1334,10.40001 5.7333,6.66668 8.6667,16.13335 2.9333,9.46668 2.9333,20.93336 v 86.00011 h -23.7334 v -86.00011 q 0,-15.33335 -7.0666,-23.73336 -6.9334,-8.53334 -21.3334,-8.53334 -10.5333,0 -19.7334,5.06667 -9.0666,5.06667 -16.8,13.73335 v 99.46679 z m 193.7335,-137.3335 q 8.8,0 16.4001,2 7.7333,1.86667 14,5.60001 h 36.6667 v 8.80001 q 0,4.4 -5.6,5.6 l -15.3334,2.13334 q 4.5334,8.66668 4.5334,19.33336 0,9.86668 -3.8667,18.00002 -3.7333,8.00001 -10.5334,13.73335 -6.6666,5.73334 -16,8.80001 -9.2,3.06667 -20.2667,3.06667 -9.4666,0 -17.8667,-2.26667 -4.2666,2.66667 -6.5333,5.73334 -2.1333,3.06667 -2.1333,6.00001 0,4.8 3.8666,7.33334 3.8667,2.4 10.2667,3.46667 6.4,1.06667 14.5334,1.33334 8.1333,0.26666 16.5333,0.93333 8.5334,0.53334 16.6667,2 8.1334,1.46667 14.5334,4.80001 6.4,3.33334 10.2666,9.20001 3.8667,5.86667 3.8667,15.20002 0,8.66668 -4.4,16.80002 -4.2667,8.13334 -12.4,14.40002 -8.1334,6.40001 -19.8667,10.13334 -11.7333,3.86667 -26.5334,3.86667 -14.8,0 -26,-2.93333 -11.0667,-2.93334 -18.4,-7.86668 -7.3334,-4.93334 -11.0667,-11.46668 -3.6,-6.40001 -3.6,-13.46668 0,-10.00001 6.2667,-16.93336 6.4,-7.06667 17.4667,-11.20001 -5.7334,-2.66667 -9.2001,-7.06668 -3.3333,-4.53333 -3.3333,-12.00001 0,-2.93334 1.0667,-6.00001 1.0666,-3.2 3.2,-6.26667 2.2666,-3.06667 5.4667,-5.86668 3.2,-2.8 7.4666,-4.93333 -10,-5.60001 -15.7333,-14.80002 -5.6,-9.33335 -5.6,-21.73336 0,-9.86668 3.7333,-17.86669 3.8667,-8.13334 10.6667,-13.73335 6.8,-5.73334 16.1333,-8.80001 9.4667,-3.06667 20.6667,-3.06667 z m 42.1334,144.66684 q 0,-5.06667 -2.8,-8.13334 -2.8,-3.06667 -7.6,-4.66667 -4.8,-1.73334 -11.0667,-2.53334 -6.2667,-0.8 -13.2,-1.06667 -6.9333,-0.4 -14.1333,-0.8 -7.2001,-0.4 -13.7334,-1.46667 -7.6,3.60001 -12.4,8.80001 -4.6667,5.20001 -4.6667,12.40002 0,4.53334 2.2667,8.40001 2.4,4 7.2,6.80001 4.8,2.93333 12,4.53333 7.3334,1.73334 17.2,1.73334 9.6,0 17.2001,-1.73334 7.6,-1.73333 12.8,-4.93333 5.3333,-3.20001 8.1333,-7.60001 2.8,-4.40001 2.8,-9.73335 z m -42.1334,-73.33342 q 7.2,0 12.6667,-2 5.6,-2.00001 9.3334,-5.60001 3.7333,-3.60001 5.6,-8.53335 1.8666,-5.06667 1.8666,-11.06668 0,-12.40001 -7.6,-19.73335 -7.4667,-7.33335 -21.8667,-7.33335 -14.2667,0 -21.8667,7.33335 -7.4666,7.33334 -7.4666,19.73335 0,6.00001 1.8666,11.06668 2,4.93334 5.7334,8.53335 3.7333,3.6 9.2,5.60001 5.4667,2 12.5333,2 z m 117.1999,-69.06675 v 135.06683 h -23.7333 V 184.13074 Z m 5.3334,-42.40005 q 0,3.46667 -1.4667,6.53334 -1.3333,2.93333 -3.7333,5.33334 -2.2667,2.26667 -5.3334,3.6 -3.0666,1.33334 -6.5333,1.33334 -3.4667,0 -6.5333,-1.33334 -2.9334,-1.33333 -5.3334,-3.6 -2.2667,-2.40001 -3.6,-5.33334 -1.3333,-3.06667 -1.3333,-6.53334 0,-3.46668 1.3333,-6.53335 1.3333,-3.2 3.6,-5.46667 2.4,-2.4 5.3334,-3.73334 3.0666,-1.33333 6.5333,-1.33333 3.4667,0 6.5333,1.33333 3.0667,1.33334 5.3334,3.73334 2.4,2.26667 3.7333,5.46667 1.4667,3.06667 1.4667,6.53335 z m 36.5337,177.46688 V 184.13074 h 14.1334 q 5.0666,0 6.4,4.93334 l 1.8666,14.66668 q 8.8,-9.73334 19.6001,-15.73335 10.9333,-6.00001 25.2,-6.00001 11.0667,0 19.4667,3.73334 8.5333,3.6 14.1333,10.40001 5.7334,6.66668 8.6667,16.13335 2.9333,9.46668 2.9333,20.93336 v 86.00011 h -23.7333 v -86.00011 q 0,-15.33335 -7.0667,-23.73336 -6.9333,-8.53334 -21.3334,-8.53334 -10.5333,0 -19.7333,5.06667 -9.0667,5.06667 -16.8,13.73335 v 99.46679 z M 3383.4329,181.9974 q 12.1334,0 22.4001,4.13334 10.2666,4 17.7333,11.73335 7.4667,7.60001 11.6,18.93335 4.2667,11.20002 4.2667,25.60003 0,5.60001 -1.2,7.46668 -1.2,1.86667 -4.5333,1.86667 h -89.8668 q 0.2667,12.80001 3.4667,22.26669 3.2,9.46668 8.8,15.86669 5.6,6.26667 13.3333,9.46668 7.7334,3.06667 17.3334,3.06667 8.9333,0 15.3333,-2 6.5334,-2.13334 11.2,-4.53334 4.6667,-2.40001 7.7334,-4.40001 3.2,-2.13333 5.4667,-2.13333 2.9333,0 4.5333,2.26666 l 6.6667,8.66668 q -4.4,5.33334 -10.5334,9.33335 -6.1333,3.86667 -13.2,6.4 -6.9333,2.53334 -14.4,3.73334 -7.4667,1.33334 -14.8,1.33334 -14,0 -25.8667,-4.66668 -11.7334,-4.8 -20.4001,-13.86668 -8.5333,-9.20001 -13.3333,-22.66669 -4.8,-13.46669 -4.8,-30.93337 0,-14.13335 4.2667,-26.40004 4.4,-12.26668 12.5333,-21.20002 8.1334,-9.06668 19.8667,-14.13335 11.7333,-5.20001 26.4,-5.20001 z m 0.5334,17.46669 q -17.2001,0 -27.0667,10.00001 -9.8667,9.86668 -12.2667,27.4667 h 73.4667 q 0,-8.26668 -2.2666,-15.06668 -2.2667,-6.93335 -6.6667,-11.86668 -4.4,-5.06668 -10.8,-7.73335 -6.2667,-2.8 -14.4,-2.8 z"
            id="path5"/>
    </g>
</svg>
